<svg width="32" height="48" viewBox="0 0 32 48" fill="none" xmlns="http://www.w3.org/2000/svg">
<g clip-path="url(#clip0_2785_7916)">
<path d="M14.4752 33.8163H2.53553V0.0459082C2.51652 0.0294475 2.49439 0.016964 2.47046 0.00919709C2.44653 0.00143015 2.42128 -0.00146238 2.39621 0.000690803H-8.6695e-05L-0.0488484 0.0459082C-0.0836444 0.0491062 -0.115965 0.0652454 -0.139404 0.0911256V34.0876H14.4892C14.6111 34.0876 14.6738 34.039 14.6738 33.9485C14.6738 33.8581 14.5971 33.8163 14.4752 33.8163Z" fill="#2A2E4D"/>
<path d="M13.2911 30.9363C13.8344 31.0198 14.0469 31.392 14.3708 31.7642C14.3825 31.779 14.3993 31.789 14.418 31.7922C14.4366 31.7954 14.4558 31.7916 14.4718 31.7816C15.0988 33.2598 15.8267 34.6929 16.4467 36.1711C16.0957 35.6139 15.5741 35.1846 14.9594 34.9468C14.9429 34.9419 14.9253 34.942 14.9088 34.9472C14.8923 34.9523 14.8778 34.9622 14.867 34.9756C14.8561 34.989 14.8496 35.0053 14.848 35.0225C14.8465 35.0397 14.8501 35.0569 14.8584 35.072C15.4018 36.0842 15.9033 37.2389 16.9761 37.785C16.9932 37.79 17.0113 37.79 17.0283 37.785H17.0701C17.1328 37.9659 17.1885 38.1329 17.2443 38.3242C17.7292 39.926 18.0433 41.5746 18.1812 43.2424C17.6553 41.1068 16.8751 39.0024 15.0152 37.6772C15.002 37.6695 14.9872 37.6653 14.972 37.6649C14.9568 37.6645 14.9417 37.6679 14.9282 37.6748C14.9146 37.6818 14.9031 37.692 14.8945 37.7045C14.886 37.7171 14.8808 37.7316 14.8793 37.7468C14.9769 40.3833 15.7013 43.2876 18.2543 44.5468C18.2856 45.6778 18.2402 46.8097 18.1185 47.9346C18.1185 48.0459 18.2822 48.0563 18.2927 47.9346C18.4058 46.9033 18.4546 45.8659 18.4389 44.8285H18.4598C18.4684 44.8361 18.4786 44.8415 18.4897 44.8444C18.5007 44.8473 18.5123 44.8476 18.5234 44.8452C18.5346 44.8429 18.5451 44.8379 18.554 44.8308C18.5629 44.8236 18.57 44.8145 18.5748 44.8042C18.5844 44.7863 18.5925 44.7677 18.5992 44.7485C19.3998 44.2638 20.0526 43.5698 20.4869 42.7416C20.9293 41.8894 21.4308 40.825 21.3472 39.8476C21.3479 39.8322 21.3445 39.8169 21.3373 39.8033C21.33 39.7896 21.3193 39.7782 21.3062 39.77C21.2931 39.7619 21.2781 39.7574 21.2626 39.757C21.2472 39.7565 21.2319 39.7602 21.2184 39.7676C20.4312 40.1955 19.5849 40.672 19.1669 41.5068C18.6862 42.4668 18.9057 43.5937 18.4877 44.5781V44.5468C18.4912 44.5316 18.4911 44.5159 18.4874 44.5009C18.4838 44.4858 18.4768 44.4717 18.4668 44.4598L18.425 44.272C18.3762 42.9541 18.2154 41.6427 17.9444 40.352C17.9585 40.3472 17.9704 40.3376 17.9781 40.3249C17.9857 40.3121 17.9886 40.2971 17.9862 40.2824C17.9548 39.1694 18.1359 38.0459 18.9544 37.2459C19.0554 37.3502 19.1878 37.4789 19.3236 37.4685C19.4595 37.4581 19.6928 37.225 19.8043 37.0755C19.752 37.1937 19.6754 37.2876 19.5953 37.4233C19.5491 37.492 19.5261 37.5736 19.5299 37.6563C19.5336 37.739 19.5639 37.8182 19.6162 37.8824C19.7625 38.105 19.8948 38.0807 20.1247 38.1189C20.3293 38.148 20.524 38.2255 20.6924 38.345C20.7767 38.4187 20.8787 38.4691 20.9885 38.4911C21.5109 38.5433 21.5284 37.8894 21.4134 37.5485C21.2132 37.0726 20.8716 36.6695 20.4347 36.3937C20.5524 35.9875 20.568 35.5586 20.48 35.145C20.4347 34.9016 20.3894 34.2929 20.1108 34.1746C19.9368 34.1463 19.7589 34.1546 19.5883 34.1989C19.3933 34.2163 19.0729 34.1989 18.8917 34.3033C18.7106 34.4076 18.6967 34.7868 18.7002 35.0511C18.6541 35.0271 18.6018 35.0176 18.5502 35.0238C18.4986 35.03 18.4501 35.0517 18.4111 35.0859C18.2787 35.2007 18.3484 35.3989 18.3658 35.545C18.3895 35.6805 18.3977 35.8182 18.3902 35.9555C18.377 36.0748 18.3477 36.1918 18.3031 36.3033C18.2995 36.3531 18.2995 36.4031 18.3031 36.4529C18.3379 36.6824 18.6514 36.9433 18.8221 37.1137C18.1522 37.8279 17.7885 38.7754 17.8085 39.7537C17.573 38.7928 17.2751 37.8482 16.9169 36.9259C16.9622 36.9885 17.0771 36.9781 17.0771 36.8876C17.0771 36.7972 17.0771 36.7729 17.0771 36.7172C17.3202 35.4039 17.2762 34.0537 16.9482 32.7589C16.943 32.7409 16.932 32.725 16.9169 32.7137C16.9018 32.7024 16.8835 32.6963 16.8646 32.6963C16.8458 32.6963 16.8275 32.7024 16.8124 32.7137C16.7973 32.725 16.7863 32.7409 16.781 32.7589C16.3878 33.8287 16.3223 34.9911 16.593 36.0981C16.2063 35.1659 15.7849 34.2476 15.3635 33.3155C15.3745 33.301 15.3804 33.2832 15.3804 33.265C15.3804 33.2468 15.3745 33.2291 15.3635 33.2146C15.3629 33.2018 15.3629 33.1891 15.3635 33.1763C15.3681 33.1653 15.3704 33.1535 15.3704 33.1416C15.3704 33.1296 15.3681 33.1178 15.3635 33.1068C15.3635 33.072 15.3635 33.0407 15.3635 33.0059C15.3284 32.2069 15.4824 31.4109 15.8128 30.6824C16.1528 30.1152 16.4474 29.5221 16.694 28.9085C16.6977 28.8938 16.6977 28.8783 16.694 28.8636C16.6902 28.8489 16.6827 28.8353 16.6723 28.8242C16.6619 28.8131 16.6488 28.8048 16.6344 28.8001C16.6199 28.7954 16.6044 28.7944 16.5895 28.7972C16.4972 28.826 16.4065 28.8597 16.3178 28.8981C16.303 28.8895 16.2862 28.885 16.269 28.885C16.2519 28.885 16.2351 28.8895 16.2203 28.8981L16.1576 28.9607C14.942 29.5589 14.6111 30.912 14.8584 32.185C14.3584 31.0545 13.9326 29.8926 13.5837 28.7068C13.6058 28.7 13.6245 28.6851 13.6359 28.665C13.6525 28.6645 13.6685 28.6584 13.6812 28.6476C14.3172 28.1376 14.8901 27.5538 15.3878 26.9085H22.11C22.2309 26.8727 22.3567 26.8562 22.4827 26.8598H22.6185C22.6818 26.8598 22.7449 26.8528 22.8066 26.8389C22.8667 26.8223 22.9289 26.8141 22.9912 26.8146C23.0465 26.8156 23.1017 26.8086 23.1549 26.7937C23.2076 26.7761 23.263 26.7679 23.3186 26.7694H23.4579C24.5598 26.5563 25.6145 26.1475 26.5717 25.5624C27.5195 24.9845 28.3665 24.2561 29.0795 23.4059C29.7951 22.548 30.3603 21.5754 30.7513 20.5294C31.1567 19.4388 31.3609 18.2839 31.3539 17.1207C31.361 15.8212 31.1002 14.5342 30.5876 13.3398C30.0938 12.1747 29.3849 11.1127 28.4978 10.2094C27.6087 9.30837 26.5507 8.59096 25.384 8.09808C24.1848 7.59473 22.8953 7.34143 21.5945 7.35373H16.896C16.8751 7.33286 16.8577 7.30851 16.8368 7.29112C16.7092 7.19803 16.5515 7.15586 16.3944 7.17286H16.1158C16.074 6.58503 15.8058 5.72242 15.0395 6.04242C14.885 6.11305 14.7182 6.1532 14.5484 6.16068C14.5032 6.16068 14.4579 6.13286 14.4126 6.13981C14.3575 6.1443 14.3039 6.16024 14.2554 6.18659C14.2068 6.21294 14.1643 6.24914 14.1305 6.29286C13.9389 6.54329 14.0748 6.90155 14.2036 7.14503H14.1096C13.8902 7.11025 13.6986 6.94677 13.521 7.18329C13.3433 7.41981 13.521 7.66329 13.6777 7.82677C13.8936 8.0459 14.0539 8.13981 14.1131 8.46329C14.1185 8.60039 14.1542 8.7346 14.2176 8.85634C14.3042 8.99045 14.4138 9.1082 14.5415 9.20416C13.9237 10.6531 13.4263 12.1503 13.0542 13.6807C12.9532 11.632 11.9362 9.77807 10.6684 8.16068C10.6196 8.09807 10.5221 8.16068 10.5151 8.21634C10.4246 9.78503 10.3897 11.4198 10.9401 12.9189C11.2257 13.705 11.8073 14.9259 12.7791 14.9189C12.6816 15.4268 12.5945 15.9346 12.5213 16.4424C12.2648 16.0372 11.9463 15.6745 11.5775 15.3676C11.5113 15.312 11.4381 15.3955 11.4451 15.4616C11.547 16.3351 11.7408 17.1955 12.0233 18.0285C12.1103 18.2755 12.2009 18.5224 12.281 18.7694C12.2253 19.6575 12.2102 20.5445 12.2357 21.4302C11.4764 20.2302 10.4629 19.1798 9.99269 17.8163C9.99269 17.7933 9.98351 17.7712 9.96718 17.7548C9.95085 17.7385 9.92871 17.7294 9.90561 17.7294C9.88252 17.7294 9.86037 17.7385 9.84404 17.7548C9.82771 17.7712 9.81854 17.7933 9.81854 17.8163C9.54406 19.6642 9.72702 21.5511 10.3514 23.312C10.846 24.7033 11.6158 26.2998 12.9497 27.0546C13.2211 28.2459 13.5701 29.4183 13.9946 30.5642C14.1096 30.8737 14.228 31.1763 14.3429 31.4789C14.1452 31.2197 13.8836 31.016 13.5837 30.8876M11.9153 16.3937L11.884 16.2268C11.9188 16.2859 11.9536 16.3416 11.985 16.4007C11.9676 16.3922 11.9475 16.391 11.9292 16.3972L11.9153 16.3937ZM15.5237 35.9763L15.6247 36.1224L15.6456 36.1885L15.5237 35.9763ZM16.3457 37.1172C16.2656 37.0372 16.1889 36.9502 16.1158 36.8633L16.2621 36.985L16.3526 37.1068L16.3457 37.1172ZM19.0206 42.7833C19.0755 42.2494 19.2637 41.7378 19.568 41.2954C19.8723 40.853 20.2828 40.494 20.7621 40.2511C20.877 40.1816 21.0721 40.0076 21.194 40.0876C21.3159 40.1676 21.0686 40.8598 21.0407 40.9572C20.899 41.3772 20.735 41.7893 20.5496 42.192C20.1905 43.052 19.6086 43.8011 18.8639 44.3624C19.4386 43.4372 19.5152 42.2755 20.1735 41.3989C20.2048 41.3572 20.1352 41.312 20.1038 41.3537C19.4072 42.2789 19.3654 43.4963 18.7106 44.4389C18.8688 43.8987 18.9726 43.3441 19.0206 42.7833ZM18.2474 44.3276V44.3659C17.2009 43.8077 16.3683 42.92 15.8789 41.8407C15.6084 41.2524 15.4108 40.6333 15.2903 39.9972C15.2241 39.6702 15.1754 39.3363 15.1371 39.0059C15.1371 38.9189 14.9873 38.1189 15.0813 37.9972C15.1754 37.8755 16.1889 39.0407 16.3004 39.1972C16.6414 39.6639 16.9321 40.1652 17.1677 40.6929C17.5672 41.6237 17.8729 42.5919 18.0802 43.5833C17.8302 43.0882 17.5414 42.6137 17.2164 42.1642C16.6686 41.328 16.2242 40.4287 15.8929 39.4859C15.872 39.4372 15.8023 39.4859 15.8197 39.5242C16.1197 40.3956 16.5206 41.2291 17.0144 42.0076C17.4892 42.6362 17.8824 43.3222 18.1847 44.0494L18.2474 44.3276ZM21.1174 37.3711C21.1696 37.4685 21.2915 37.6598 21.2776 37.7642C21.1383 37.9416 21.0024 38.112 20.8631 38.2929L20.6715 38.1329C20.5875 38.0721 20.4977 38.0196 20.4034 37.9763C20.3581 37.9589 20.2954 37.9763 20.2536 37.9763C20.0841 37.8331 19.9268 37.6761 19.7834 37.5068C19.7834 37.4337 19.9297 37.2946 19.9645 37.2042C20.0313 37.0038 20.055 36.7917 20.0342 36.5816C20.043 36.5134 20.043 36.4445 20.0342 36.3763C20.4655 36.618 20.8359 36.9546 21.1174 37.3607V37.3711ZM18.5608 36.0668C18.5765 35.9397 18.5765 35.8112 18.5608 35.6842C18.5608 35.5102 18.425 35.2981 18.7141 35.3085C18.7182 35.3236 18.7262 35.3374 18.7372 35.3485C18.7483 35.3596 18.762 35.3676 18.7771 35.3718C18.7922 35.376 18.8081 35.3762 18.8233 35.3725C18.8386 35.3687 18.8525 35.361 18.8639 35.3502C18.9703 35.4282 19.0715 35.5131 19.1669 35.6042C19.3794 35.7676 19.5814 35.952 19.7799 36.1224C19.86 36.1955 19.9924 36.0772 19.9053 36.0007C19.6195 35.7337 19.317 35.4851 18.9997 35.2563L18.8813 35.1763C18.8813 34.912 18.8813 34.5537 19.1146 34.4494C19.4629 34.3033 20.0342 34.3763 20.1839 34.7242C20.3857 35.2314 20.4175 35.7904 20.2745 36.3172L19.9993 36.1329C19.9871 36.1243 19.9725 36.1198 19.9575 36.1198C19.9426 36.1198 19.928 36.1243 19.9157 36.1329C19.9032 36.1333 19.8909 36.1362 19.8796 36.1416C19.8683 36.147 19.8582 36.1547 19.85 36.1642C19.8418 36.1737 19.8357 36.1848 19.832 36.1967C19.8284 36.2087 19.8272 36.2213 19.8287 36.2337C19.8287 36.3068 19.8287 36.3833 19.853 36.4563C19.8217 36.7416 19.6441 37.2146 19.3794 37.2702C19.3213 37.2732 19.2634 37.2632 19.2098 37.2409C19.1562 37.2186 19.1082 37.1847 19.0694 37.1416C19.0761 37.1253 19.0776 37.1073 19.0739 37.0902C19.0702 37.073 19.0613 37.0573 19.0485 37.0452C19.0357 37.0332 19.0195 37.0253 19.002 37.0226C18.9846 37.0199 18.9668 37.0226 18.9509 37.0302L18.9057 36.9816C18.7706 36.8722 18.6673 36.7287 18.6066 36.566C18.546 36.4033 18.5302 36.2273 18.5608 36.0563V36.0668ZM16.882 36.4146C16.882 36.4146 16.882 36.4146 16.882 36.3937C16.882 36.4529 16.882 36.512 16.882 36.5711C16.882 36.5329 16.8542 36.4946 16.8437 36.4563C16.8546 36.4505 16.8638 36.442 16.8705 36.4317C16.8772 36.4213 16.8812 36.4095 16.882 36.3972V36.4146ZM16.6104 34.3276C16.6076 34.6263 16.6239 34.9249 16.6591 35.2216C16.6591 35.305 16.6591 35.3885 16.6417 35.472C16.5908 35.0904 16.5803 34.7045 16.6104 34.3207V34.3276ZM16.586 36.7624C16.6487 36.8807 16.7044 36.9989 16.7601 37.1102L16.5755 36.8389C16.5845 36.8272 16.5902 36.8133 16.5921 36.7986C16.5939 36.7839 16.5918 36.7691 16.586 36.7555V36.7624ZM16.3457 29.3746C16.182 29.9242 15.757 30.4181 15.5097 30.9468C15.5097 30.8772 15.5411 30.8111 15.555 30.745C15.6177 30.5943 15.6839 30.4447 15.7536 30.2963C15.966 29.9416 16.1889 29.6042 16.3457 29.3676V29.3746ZM16.2168 29.2807C16.1943 29.3923 16.1531 29.4993 16.0949 29.5972C16.0911 29.5798 16.0826 29.5639 16.0703 29.551C16.058 29.5381 16.0424 29.5288 16.0252 29.5242C16.0972 29.4472 16.1614 29.3633 16.2168 29.2737V29.2807ZM15.8302 29.6668H15.8511C15.6963 29.858 15.5782 30.0762 15.5028 30.3102C15.504 30.2952 15.504 30.2801 15.5028 30.265C15.5028 30.265 15.4854 30.2407 15.4749 30.2302C15.5933 30.0424 15.7083 29.8476 15.8302 29.6598V29.6668ZM15.1336 32.6337C15.1319 32.6488 15.1319 32.6639 15.1336 32.6789L15.1127 32.6302L15.1336 32.6337ZM14.9769 31.9694C14.9769 32.0389 14.9943 32.112 15.0047 32.185C14.9838 32.0876 14.9629 31.9902 14.949 31.8963C14.9567 31.9212 14.966 31.9456 14.9769 31.9694ZM14.9455 31.0059C14.9368 31.1461 14.9368 31.2866 14.9455 31.4268C14.932 31.4909 14.9239 31.5561 14.9211 31.6216C14.9049 31.4164 14.9096 31.2101 14.9351 31.0059H14.9455ZM16.3979 7.35373C16.5303 7.35902 16.6569 7.4096 16.7565 7.49698C16.856 7.58436 16.9225 7.70325 16.9447 7.83373C16.9691 8.07373 16.8646 8.01112 16.8437 8.18155C16.7845 8.61981 17.0074 8.85634 16.3909 9.05808C16.2913 9.09979 16.1828 9.11621 16.0753 9.1059C15.9677 9.09558 15.8643 9.05884 15.7745 8.99894L15.7396 8.97808C15.9904 8.65807 15.7396 8.2059 15.6595 7.85112C15.6548 7.83542 15.6459 7.8213 15.6337 7.81026C15.6216 7.79923 15.6067 7.79171 15.5906 7.78849C15.5745 7.78527 15.5578 7.78649 15.5423 7.79201C15.5269 7.79753 15.5132 7.80714 15.5028 7.81981C15.4757 7.6696 15.4264 7.52425 15.3565 7.38851C15.6984 7.34607 16.0433 7.33327 16.3875 7.35025L16.3979 7.35373ZM14.5972 6.36242C14.6914 6.36654 14.7856 6.35478 14.8758 6.32764C15.1545 6.23025 15.3704 6.07721 15.6456 6.2859C15.7565 6.40656 15.8411 6.54899 15.8939 6.70409C15.9466 6.8592 15.9665 7.02359 15.9521 7.18677L15.3809 7.20764C15.3589 7.20757 15.3378 7.21577 15.3216 7.2306C15.3055 7.24543 15.2956 7.2658 15.2938 7.28764C15.2348 7.20527 15.1557 7.1394 15.0639 7.09634C14.8375 6.98503 14.6146 7.09634 14.3882 7.1346C14.393 7.12109 14.393 7.10636 14.3882 7.09286C14.2106 6.79721 14.0852 6.37981 14.5868 6.35894L14.5972 6.36242ZM14.1827 8.04242C13.9981 7.78155 13.8936 7.89286 13.8936 7.51373C13.8936 7.07547 13.9737 7.35025 14.2419 7.36764C14.328 7.35765 14.4131 7.34019 14.4962 7.31547C14.5507 7.28754 14.6115 7.27444 14.6727 7.27749C14.7338 7.28055 14.7931 7.29964 14.8445 7.33286C15.05 7.28068 15.1684 7.33286 15.1928 7.53112C15.2698 7.66945 15.3172 7.82224 15.3321 7.97981C15.3374 7.99788 15.3484 8.01374 15.3635 8.02503C15.3785 8.03632 15.3969 8.04242 15.4157 8.04242C15.4345 8.04242 15.4529 8.03632 15.468 8.02503C15.483 8.01374 15.494 7.99788 15.4993 7.97981C15.5805 8.16831 15.6277 8.36968 15.6386 8.5746C15.6296 8.67939 15.5962 8.78064 15.5411 8.87025C15.5253 8.86873 15.5094 8.87122 15.4949 8.87748C15.4803 8.88375 15.4676 8.89358 15.4579 8.90607C15.4481 8.91857 15.4417 8.93331 15.4392 8.94894C15.4367 8.96457 15.4382 8.98057 15.4436 8.99547C15.3615 9.07902 15.2578 9.13821 15.144 9.16645C15.0303 9.1947 14.9109 9.1909 14.7992 9.15547L14.733 9.13112C14.7266 9.10898 14.7116 9.09031 14.6913 9.07922C14.6711 9.06813 14.6472 9.06553 14.6251 9.07199C14.3116 8.8459 14.3882 8.34851 14.1723 8.03894L14.1827 8.04242ZM13.2632 14.4563C14.0207 13.4054 14.9441 12.4845 15.9974 11.7294C16.0392 11.6981 15.9974 11.6389 15.9416 11.6702C14.9234 12.4008 14.0256 13.2857 13.2806 14.2929C13.4196 13.3346 13.8543 12.4434 14.5241 11.7433C15.3565 10.8737 16.3805 10.5224 17.5438 10.3102C17.9618 10.2337 18.1255 10.0946 17.8608 10.6268C17.7306 10.8744 17.5816 11.1116 17.4149 11.3363C17.0886 11.7854 16.7162 12.1993 16.3039 12.5711C15.4575 13.3502 14.4056 14.2789 13.2423 14.505C13.2476 14.488 13.2511 14.4706 13.2528 14.4529L13.2632 14.4563ZM13.0542 14.505C13.0786 14.3902 13.103 14.272 13.1309 14.1572C13.11 14.2824 13.0926 14.4076 13.0821 14.5363H13.0508C13.0502 14.5245 13.0478 14.5127 13.0438 14.5016L13.0542 14.505ZM10.7973 11.7363C10.6278 10.6551 10.5869 9.55762 10.6754 8.46677C12.0128 10.2233 13.0299 12.2476 12.8662 14.5016C12.0651 13.3363 11.7795 11.9346 11.2988 10.6198C11.2988 10.5711 11.2048 10.5885 11.2222 10.6198C11.7098 11.9624 12.0024 13.4024 12.8313 14.5746C12.8221 14.5898 12.8172 14.6072 12.8172 14.625C12.8172 14.6428 12.8221 14.6603 12.8313 14.6755V14.7276C11.567 14.8181 10.9679 12.6546 10.7973 11.7363ZM12.6189 16.9955L12.7129 17.1659C12.7025 17.1639 12.6919 17.1639 12.6816 17.1659L12.6084 17.0511L12.6189 16.9955ZM12.7199 18.6894C12.7199 18.6546 12.7025 18.6163 12.6955 18.5816C12.7686 18.7416 12.8453 18.905 12.9219 19.065C12.9219 19.1485 12.9219 19.232 12.9219 19.3155C12.8871 19.1068 12.8035 18.8981 12.7234 18.6894H12.7199ZM12.9915 20.5781C12.9393 20.5781 12.8836 20.5781 12.8313 20.5989V20.5711L12.9915 20.5781ZM12.1556 16.752C12.1347 16.6929 12.1103 16.6337 12.0825 16.5711C12.1173 16.6407 12.1556 16.7033 12.1939 16.7694L12.1556 16.752ZM12.1103 16.1989C12.2323 16.3624 12.3576 16.5468 12.4761 16.7416V16.8181C12.4343 16.752 12.389 16.6859 12.3472 16.6163C12.2706 16.4911 12.1905 16.3485 12.1138 16.2129L12.1103 16.1989ZM12.4586 20.2511C12.4324 20.2773 12.408 20.3052 12.3855 20.3346C12.3855 19.9868 12.3855 19.6389 12.4099 19.2911C12.4887 19.6094 12.5099 19.9393 12.4726 20.265L12.4586 20.2511ZM10.3689 22.832C9.90555 21.3293 9.76316 19.7462 9.95089 18.185C10.4977 19.4824 11.4939 20.4911 12.2044 21.7016L12.2462 21.7746C12.2671 22.2894 12.2984 22.8181 12.3472 23.3155C12.3855 23.7363 12.4378 24.1572 12.497 24.5746C11.994 23.0126 11.3902 21.4847 10.6893 20.0007C10.6684 19.952 10.5952 20.0007 10.6196 20.0389C11.3858 21.6638 12.0353 23.3411 12.5631 25.0581C12.6572 25.6494 12.7652 26.2372 12.894 26.8216C11.5775 26.0007 10.8182 24.272 10.3723 22.8459L10.3689 22.832ZM12.8871 25.8963C12.6559 24.6586 12.5046 23.4073 12.4343 22.1502C13.1152 23.5338 13.3419 25.0966 13.0821 26.6163C13.0264 26.3763 12.9637 26.1363 12.8871 25.8963ZM13.8936 28.265L16.0461 24.0355C16.0705 23.9902 16.0009 23.945 15.98 23.9937L13.7334 28.3972L13.6568 28.4633C13.8205 27.072 14.0295 25.5137 14.6808 24.2894C15.0047 23.7102 15.4348 23.1969 15.9486 22.7763C16.243 22.529 16.55 22.2968 16.8681 22.0807C17.1537 21.8755 17.2756 21.6702 17.2164 22.1398C16.8822 24.5125 15.7055 26.6863 13.9006 28.265H13.8936ZM28.6476 19.6494C28.6033 19.9387 28.5742 20.2301 28.5605 20.5224C28.5101 21.0331 28.3845 21.5336 28.1878 22.0076C27.7315 23.2975 26.9085 24.4265 25.8194 25.2563C24.7008 26.1235 23.334 26.611 21.9185 26.6476H15.5829C16.6437 25.1624 17.2881 23.4213 17.4498 21.6042C17.4504 21.5888 17.447 21.5734 17.4398 21.5598C17.4326 21.5462 17.4219 21.5347 17.4088 21.5265C17.3956 21.5184 17.3806 21.5139 17.3652 21.5135C17.3497 21.5131 17.3344 21.5167 17.3209 21.5242C16.2342 22.2685 15.0918 23.0581 14.4927 24.2685C13.8936 25.4789 13.6568 27.0511 13.4931 28.425C13.3747 28.0146 13.2667 27.6007 13.1692 27.1833C13.2702 27.2285 13.3642 27.0824 13.2632 27.0337L13.1936 26.9989C13.531 25.4672 13.3825 23.8686 12.7686 22.425C12.6659 22.1935 12.5496 21.9681 12.4203 21.7502C12.4203 21.4337 12.3994 21.1172 12.396 20.8007C12.8456 20.8978 13.3114 20.892 13.7584 20.7836C14.2054 20.6751 14.622 20.4669 14.9769 20.1746C14.987 20.1664 14.9952 20.1561 15.0009 20.1444C15.0065 20.1326 15.0094 20.1198 15.0094 20.1068C15.0094 20.0937 15.0065 20.0809 15.0009 20.0692C14.9952 20.0574 14.987 20.0471 14.9769 20.0389C14.7745 19.9232 14.5512 19.8486 14.3199 19.8194C14.0886 19.7901 13.8538 19.8068 13.6289 19.8685C14.0929 19.5306 14.5742 19.2172 15.0709 18.9294C15.1266 19.1311 15.1858 19.3259 15.2207 19.4929C15.2264 19.515 15.2405 19.5342 15.2598 19.5465C15.2792 19.5588 15.3026 19.5632 15.3252 19.5589L15.5481 19.5137C15.5668 19.5096 15.5834 19.4989 15.5949 19.4836C15.6064 19.4683 15.612 19.4494 15.6108 19.4302C15.7958 19.3756 15.9521 19.2507 16.0461 19.0824C16.1332 19.1659 16.182 19.4929 16.2307 19.6111C16.2795 19.7294 16.4118 19.8616 16.4676 20.0111C16.5442 20.2233 16.5303 20.3589 16.7183 20.5016C16.7313 20.5099 16.7464 20.5144 16.7619 20.5144C16.7773 20.5144 16.7925 20.5099 16.8054 20.5016C17.0432 20.392 17.2366 20.2049 17.3537 19.971C17.4708 19.7371 17.5047 19.4703 17.4498 19.2146C17.4372 18.9245 17.3274 18.6471 17.1379 18.4269C16.9483 18.2067 16.6902 18.0566 16.4049 18.0007C16.3858 17.9944 16.3651 17.9951 16.3466 18.0028C16.328 18.0104 16.3129 18.0245 16.3039 18.0424L16.1576 18.0216C16.1023 17.711 15.9837 17.415 15.8093 17.152C15.9267 17.0679 16.0621 17.0122 16.2047 16.9893C16.3473 16.9664 16.4934 16.9768 16.6313 17.0198C16.7253 17.0372 16.6313 16.8772 16.8263 17.0616C16.8611 17.0998 16.8507 17.2633 16.889 17.3224C16.9726 17.4581 17.1189 17.4685 17.2547 17.5172C17.3257 17.5313 17.3931 17.5595 17.4529 17.6001C17.5128 17.6408 17.5638 17.693 17.603 17.7537L17.3871 18.1016C17.3174 18.1502 17.192 18.1502 17.1119 18.2024C17.0318 18.2546 17.1119 18.4181 17.1955 18.3555C17.4428 18.192 17.812 18.2685 17.8085 17.8616C17.805 17.4546 17.4776 17.4442 17.2234 17.3085C16.9691 17.1729 17.098 16.9781 16.9029 16.832C16.8019 16.7555 16.7706 16.8076 16.6661 16.8146C16.283 16.8146 16.0322 16.7416 15.7083 16.9989C15.5563 16.8104 15.3386 16.6862 15.0988 16.6511C15.0852 16.6509 15.0719 16.6536 15.0596 16.6592C15.0473 16.6648 15.0364 16.6731 15.0277 16.6834C15.019 16.6938 15.0127 16.7059 15.0094 16.719C15.006 16.732 15.0056 16.7457 15.0082 16.7589C15.1122 17.058 15.1479 17.3765 15.1127 17.6911C15.0813 17.7989 14.9838 17.8442 14.9629 17.9833C14.9379 18.2411 14.9652 18.5014 15.043 18.7485C14.4891 19.0668 13.9531 19.4151 13.4374 19.792C13.4374 19.7572 13.4722 19.7224 13.4861 19.6876C13.6394 19.2702 13.4583 18.7659 13.3538 18.3555C13.2079 17.7678 12.9854 17.2018 12.692 16.672C12.7756 16.0807 12.8731 15.4894 12.9915 14.905H13.0333C13.0478 14.9017 13.061 14.8947 13.0718 14.8846C13.0827 14.8745 13.0906 14.8618 13.0948 14.8476C13.0991 14.8335 13.0995 14.8185 13.096 14.8041C13.0926 14.7898 13.0854 14.7766 13.0751 14.7659C13.0776 14.761 13.0789 14.7557 13.0789 14.7502C13.0789 14.7448 13.0776 14.7395 13.0751 14.7346C13.0789 14.7364 13.0831 14.7374 13.0873 14.7374C13.0915 14.7374 13.0957 14.7364 13.0995 14.7346C13.0995 14.7577 13.1087 14.7798 13.125 14.7961C13.1414 14.8124 13.1635 14.8216 13.1866 14.8216C13.2097 14.8216 13.2318 14.8124 13.2482 14.7961C13.2645 14.7798 13.2737 14.7577 13.2737 14.7346C13.2737 14.7346 13.2737 14.7102 13.2737 14.6963C14.3743 14.4946 15.3217 13.705 16.1506 12.9955C17.1004 12.2422 17.8385 11.2559 18.2927 10.1329C18.2973 10.1184 18.298 10.1029 18.2947 10.0881C18.2915 10.0732 18.2844 10.0595 18.2742 10.0482C18.2639 10.037 18.2509 10.0286 18.2365 10.0239C18.222 10.0192 18.2065 10.0184 18.1917 10.0216C16.7671 10.3172 15.4819 10.5363 14.4335 11.625C13.9381 12.1413 13.5644 12.7617 13.3398 13.4407C13.6987 12.0357 14.1645 10.6601 14.733 9.3259C14.8052 9.38349 14.8895 9.42396 14.9796 9.44424C15.0697 9.46453 15.1632 9.4641 15.2531 9.443C15.343 9.42189 15.427 9.38066 15.4986 9.32241C15.5702 9.26416 15.6276 9.19043 15.6665 9.10677C15.7675 9.16938 15.8476 9.27025 15.98 9.2946C16.2201 9.31233 16.4607 9.26549 16.6766 9.15894C16.7611 9.12989 16.8389 9.08411 16.9053 9.02435C16.9718 8.96459 17.0254 8.89206 17.0632 8.81112C17.1259 8.63373 17.0423 8.46329 17.0632 8.28938C17.0841 8.11547 17.1816 8.01112 17.1468 7.81634C17.1251 7.75954 17.0982 7.70482 17.0666 7.65286H21.6955C21.9984 7.66013 22.3007 7.68335 22.6011 7.72242C23.0853 7.7844 23.5609 7.90109 24.0187 8.07025C25.3173 8.54564 26.4464 9.39344 27.2643 10.5073C28.0823 11.6211 28.5526 12.9514 28.6163 14.3311C28.6495 14.4677 28.6659 14.6079 28.665 14.7485L28.6476 19.6494ZM13.8275 20.1502L13.1587 20.2963C13.3739 20.2175 13.5989 20.1683 13.8275 20.1502ZM13.1587 18.2129C13.2367 18.4547 13.2881 18.7043 13.312 18.9572C13.2702 18.7033 13.2354 18.4563 13.1587 18.2129ZM13.3573 20.0529L13.3921 20.0285C13.5718 19.9898 13.7551 19.9699 13.9389 19.9694C13.7427 19.9777 13.5479 20.0056 13.3573 20.0529ZM14.0922 20.4911C13.8685 20.5804 13.6345 20.6412 13.3956 20.672C13.6309 20.6245 13.8635 20.5641 14.0922 20.4911ZM14.6843 20.1224C14.6934 20.1128 14.6995 20.1007 14.7017 20.0876L14.7609 20.1085L14.7087 20.1502C14.7025 20.1395 14.6942 20.13 14.6843 20.1224ZM15.1823 16.8494C15.5306 16.9781 15.8476 17.4963 15.9625 18.0216C15.9548 18.0324 15.9494 18.0447 15.9466 18.0577C15.9438 18.0707 15.9437 18.0841 15.9464 18.0971C15.949 18.1102 15.9542 18.1225 15.9618 18.1335C15.9694 18.1444 15.9791 18.1537 15.9904 18.1607C16.067 18.6616 15.9591 19.1381 15.555 19.2529C15.5372 19.2574 15.5214 19.2678 15.5101 19.2822C15.4988 19.2967 15.4925 19.3145 15.4923 19.3329C15.259 19.3711 15.2729 18.9259 15.2346 18.7346C15.1969 18.6021 15.1678 18.4673 15.1475 18.3311C15.1654 18.128 15.2135 17.9287 15.2903 17.7398C15.3202 17.4387 15.2833 17.1347 15.1823 16.8494ZM16.1715 18.1989L16.3178 18.2198C16.3335 18.2237 16.3501 18.2221 16.3648 18.2151C16.3794 18.2081 16.3911 18.1962 16.3979 18.1816C16.5698 18.2416 16.7273 18.3368 16.8603 18.4609C16.9934 18.5851 17.0992 18.7355 17.1709 18.9026C17.2426 19.0698 17.2788 19.25 17.277 19.4319C17.2753 19.6137 17.2356 19.7932 17.1607 19.9589C17.0109 20.2129 16.8124 20.4146 16.6522 20.0842C16.6034 19.9902 16.6208 19.865 16.5721 19.7711C16.4975 19.6608 16.4322 19.5444 16.377 19.4233C16.3074 19.2181 16.3213 19.0302 16.1088 18.9259C16.1856 18.6917 16.2071 18.4428 16.1715 18.1989Z" fill="#2A2E4D"/>
</g>
<defs>
<clipPath id="clip0_2785_7916">
<rect width="31.3469" height="48" fill="white"/>
</clipPath>
</defs>
</svg>
