<svg width="145" height="26" viewBox="0 0 145 26" fill="none" xmlns="http://www.w3.org/2000/svg">
<path d="M2.80514 17.856V0.407999C2.80514 0.407999 2.80514 0.383999 2.78114 0.383999C2.78114 0.36 2.75714 0.36 2.75714 0.36H0.237143C0.237143 0.36 0.213143 0.36 0.213143 0.383999C0.165143 0.383999 0.165143 0.407999 0.165143 0.407999V17.928C0.165143 17.928 0.165143 17.928 0.165143 17.976L0.213143 18C0.237143 18 0.237143 18 0.237143 18H2.75714H8.99714C9.02114 18 9.04514 17.976 9.04514 17.928C9.04514 17.88 9.02114 17.856 8.99714 17.856H2.80514ZM18.06 15.408C18.06 16.776 16.98 17.856 15.636 17.856C14.268 17.856 13.188 16.776 13.188 15.408V10.44C13.188 9.096 14.268 8.016 15.636 8.016C16.98 8.016 18.06 9.096 18.06 10.44V15.408ZM15.636 7.848C12.828 7.848 10.548 10.128 10.548 12.936C10.548 15.72 12.828 18 15.636 18C18.42 18 20.7 15.72 20.7 12.936C20.7 10.128 18.42 7.848 15.636 7.848ZM31.4124 9.168C31.4124 8.856 31.3164 8.52 31.0764 8.28C30.8124 8.016 30.4284 7.848 29.7564 7.848C29.0364 7.848 28.4364 8.448 28.4364 9.168C28.4364 9.888 29.0364 10.488 29.7564 10.488C30.5244 10.488 31.0764 9.888 31.0764 9.168C31.0764 8.736 30.8844 8.376 30.5484 8.136C31.1244 8.304 31.2684 8.736 31.2684 9.168C31.2684 9.768 30.9564 10.416 30.9564 10.416L28.5324 15.264L24.8364 7.896C24.8124 7.896 24.8124 7.848 24.7884 7.848H22.2684C22.2684 7.848 22.2444 7.848 22.1964 7.896C22.1964 7.92 22.1964 7.944 22.1964 7.944L27.2124 17.976C27.2124 17.976 27.2124 17.976 27.2364 18H27.2844H27.3084C27.3324 17.976 27.3324 17.976 27.3324 17.976L28.6044 15.456L31.0764 10.464C31.0764 10.464 31.4124 9.84 31.4124 9.168ZM35.5473 10.44C35.5473 10.368 35.5473 10.344 35.5473 10.296C35.5953 10.176 35.5713 9.936 35.6673 9.648C36.0033 8.688 36.9153 8.016 37.9953 8.016C39.2193 8.016 39.8193 8.616 40.1073 9.216C40.2513 9.504 40.3233 9.816 40.3953 10.056C40.4193 10.296 40.4193 10.44 40.4193 10.44C40.4193 10.44 40.4193 11.04 40.1073 11.64C39.8193 12.264 39.2193 12.864 37.9953 12.864C36.6993 12.864 36.0753 13.512 35.7393 14.16C35.6433 14.304 35.5953 14.448 35.5473 14.616V10.44ZM39.2433 14.088C38.4993 14.088 37.9233 14.688 37.9233 15.408C37.9233 16.176 38.4993 16.728 39.2433 16.728C39.6753 16.728 40.0353 16.56 40.2753 16.224C40.2273 16.368 40.1793 16.512 40.1073 16.656C39.8193 17.256 39.2193 17.856 37.9953 17.856C36.9393 17.856 36.0513 17.184 35.7153 16.224C35.6433 16.08 35.6193 15.936 35.5953 15.816C35.5953 15.72 35.5473 15.624 35.5473 15.528C35.5473 15.504 35.5473 15.48 35.5473 15.408C35.5473 15.36 35.5713 14.784 35.8593 14.208C36.1473 13.608 36.7473 12.984 37.9953 12.984C39.2433 12.984 39.8913 12.36 40.2273 11.688C40.5633 11.064 40.5633 10.44 40.5633 10.44C40.5633 10.44 40.5633 9.768 40.2273 9.144C39.9153 8.52 39.2433 7.848 37.9953 7.848C35.1873 7.848 32.9073 10.128 32.9073 12.936C32.9073 15.72 35.1633 18 37.9473 18H37.9953C39.2673 18 39.8913 17.328 40.2273 16.704C40.4673 16.248 40.5393 15.768 40.5393 15.576C40.5633 15.48 40.5633 15.456 40.5633 15.456V15.408C40.5633 14.688 39.9633 14.088 39.2433 14.088ZM50.8914 5.496C51.6114 5.496 52.2114 4.92 52.2114 4.176C52.2114 3.456 51.6114 2.856 50.8914 2.856C50.1714 2.856 49.5714 3.456 49.5714 4.176C49.5714 4.92 50.1714 5.496 50.8914 5.496ZM49.6434 7.848C49.6434 7.848 49.6194 7.848 49.6194 7.896C49.5714 7.896 49.5714 7.92 49.5714 7.92V17.928C49.5714 17.928 49.5714 17.976 49.6194 17.976C49.6194 18 49.6434 18 49.6434 18H52.1634C52.1634 18 52.1874 18 52.1874 17.976C52.2114 17.976 52.2114 17.928 52.2114 17.928V7.92C52.2114 7.92 52.2114 7.896 52.1874 7.896C52.1874 7.848 52.1634 7.848 52.1634 7.848H49.6434ZM58.8078 7.848C58.7358 7.848 57.8238 7.848 56.8878 8.328C56.7198 8.424 56.5518 8.52 56.3598 8.64V7.92C56.3598 7.92 56.3598 7.896 56.3358 7.896C56.3358 7.848 56.3118 7.848 56.3118 7.848H53.7918C53.7918 7.848 53.7678 7.848 53.7678 7.896C53.7198 7.896 53.7198 7.92 53.7198 7.92V17.928C53.7198 17.928 53.7198 17.976 53.7678 17.976C53.7678 18 53.7918 18 53.7918 18H55.0398H56.3118C56.3118 18 56.3358 18 56.3358 17.976C56.3598 17.976 56.3598 17.928 56.3598 17.928V8.808C56.5518 8.664 56.7678 8.568 56.9598 8.448C57.4158 8.232 57.8718 8.088 58.2318 8.064C58.5678 8.016 58.8078 8.016 58.8078 8.016H58.8318C59.4558 8.016 59.9598 8.544 59.9598 9.168V17.928L60.0078 17.976C60.0078 18 60.0318 18 60.0558 18H62.5518C62.5758 18 62.5758 18 62.5998 17.976V17.928V11.664C62.5998 9.576 60.8958 7.848 58.8078 7.848ZM79.1381 7.92C79.1381 8.976 78.4661 9.864 77.5061 10.2C77.3621 10.248 77.2181 10.296 77.0981 10.32C76.9781 10.344 76.8821 10.344 76.8341 10.344C76.7861 10.344 76.7381 10.344 76.7141 10.344H74.2661V0.503999H76.7141C76.7621 0.503999 76.7861 0.503999 76.8341 0.503999C76.9781 0.503999 77.2181 0.527999 77.4821 0.623999C78.4421 0.959999 79.1381 1.848 79.1381 2.904C79.1381 2.904 79.1381 2.904 79.1381 2.928V7.92ZM76.7381 0.36C76.7141 0.36 76.7141 0.36 76.7141 0.36H72.9461H71.6981C71.6981 0.36 71.6741 0.36 71.6741 0.383999C71.6261 0.383999 71.6261 0.407999 71.6261 0.407999V17.928C71.6261 17.928 71.6261 17.976 71.6741 17.976C71.6741 18 71.6981 18 71.6981 18H74.2181C74.2181 18 74.2421 18 74.2421 17.976C74.2661 17.976 74.2661 17.928 74.2661 17.928V10.488H76.7141C76.7141 10.488 76.7141 10.488 76.7381 10.488C79.5221 10.488 81.7781 8.208 81.7781 5.424C81.7781 2.64 79.5221 0.36 76.7381 0.36ZM85.8905 0.383999C85.8905 0.36 85.8665 0.36 85.8665 0.36H83.3465C83.3465 0.36 83.3225 0.36 83.3225 0.383999C83.2745 0.383999 83.2745 0.407999 83.2745 0.407999V17.928C83.2745 17.928 83.2745 17.976 83.3225 17.976C83.3225 18 83.3465 18 83.3465 18H85.8665C85.8665 18 85.8905 18 85.8905 17.976C85.9145 17.976 85.9145 17.928 85.9145 17.928V0.407999C85.9145 0.407999 85.9145 0.383999 85.8905 0.383999ZM94.935 15.456C94.935 15.528 94.911 16.08 94.623 16.656C94.335 17.256 93.735 17.856 92.511 17.856C91.455 17.856 90.543 17.184 90.231 16.248C90.159 16.08 90.135 15.936 90.111 15.816C90.111 15.72 90.063 15.624 90.063 15.528C90.063 15.504 90.063 15.48 90.063 15.408V10.44C90.063 9.096 91.143 8.016 92.511 8.016C93.855 8.016 94.935 9.096 94.935 10.44V12.936V15.456ZM97.551 7.896C97.551 7.848 97.503 7.848 97.503 7.848H94.983C94.983 7.848 94.959 7.848 94.959 7.896C94.935 7.896 94.935 7.92 94.935 7.92V8.496C94.215 8.088 93.375 7.848 92.511 7.848C89.703 7.848 87.423 10.128 87.423 12.936C87.423 15.72 89.679 18 92.463 18H92.511C93.783 18 94.407 17.328 94.743 16.704C94.839 16.56 94.911 16.416 94.935 16.248V17.928C94.935 17.928 94.935 17.976 94.959 17.976C94.959 18 94.983 18 94.983 18H97.503C97.503 18 97.551 18 97.551 17.976C97.575 17.976 97.575 17.928 97.575 17.928V7.92C97.575 7.92 97.575 7.896 97.551 7.896ZM104.159 7.848C104.087 7.848 103.175 7.848 102.239 8.328C102.071 8.424 101.903 8.52 101.711 8.64V7.92C101.711 7.92 101.711 7.896 101.687 7.896C101.687 7.848 101.663 7.848 101.663 7.848H99.1434C99.1434 7.848 99.1194 7.848 99.1194 7.896C99.0714 7.896 99.0714 7.92 99.0714 7.92V17.928C99.0714 17.928 99.0714 17.976 99.1194 17.976C99.1194 18 99.1434 18 99.1434 18H100.391H101.663C101.663 18 101.687 18 101.687 17.976C101.711 17.976 101.711 17.928 101.711 17.928V8.808C101.903 8.664 102.119 8.568 102.311 8.448C102.767 8.232 103.223 8.088 103.583 8.064C103.919 8.016 104.159 8.016 104.159 8.016H104.183C104.807 8.016 105.311 8.544 105.311 9.168V17.928L105.359 17.976C105.359 18 105.383 18 105.407 18H107.903C107.927 18 107.927 18 107.951 17.976V17.928V11.664C107.951 9.576 106.247 7.848 104.159 7.848ZM114.542 7.848C114.47 7.848 113.558 7.848 112.622 8.328C112.454 8.424 112.286 8.52 112.094 8.64V7.92C112.094 7.92 112.094 7.896 112.07 7.896C112.07 7.848 112.046 7.848 112.046 7.848H109.526C109.526 7.848 109.502 7.848 109.502 7.896C109.454 7.896 109.454 7.92 109.454 7.92V17.928C109.454 17.928 109.454 17.976 109.502 17.976C109.502 18 109.526 18 109.526 18H110.774H112.046C112.046 18 112.07 18 112.07 17.976C112.094 17.976 112.094 17.928 112.094 17.928V8.808C112.286 8.664 112.502 8.568 112.694 8.448C113.15 8.232 113.606 8.088 113.966 8.064C114.302 8.016 114.542 8.016 114.542 8.016H114.566C115.19 8.016 115.694 8.544 115.694 9.168V17.928L115.742 17.976C115.742 18 115.766 18 115.79 18H118.286C118.31 18 118.31 18 118.334 17.976V17.928V11.664C118.334 9.576 116.63 7.848 114.542 7.848ZM121.157 5.496C121.877 5.496 122.477 4.92 122.477 4.176C122.477 3.456 121.877 2.856 121.157 2.856C120.437 2.856 119.837 3.456 119.837 4.176C119.837 4.92 120.437 5.496 121.157 5.496ZM119.909 7.848C119.909 7.848 119.885 7.848 119.885 7.896C119.837 7.896 119.837 7.92 119.837 7.92V17.928C119.837 17.928 119.837 17.976 119.885 17.976C119.885 18 119.909 18 119.909 18H122.429C122.429 18 122.453 18 122.453 17.976C122.477 17.976 122.477 17.928 122.477 17.928V7.92C122.477 7.92 122.477 7.896 122.453 7.896C122.453 7.848 122.429 7.848 122.429 7.848H119.909ZM129.073 7.848C129.001 7.848 128.089 7.848 127.153 8.328C126.985 8.424 126.817 8.52 126.625 8.64V7.92C126.625 7.92 126.625 7.896 126.601 7.896C126.601 7.848 126.577 7.848 126.577 7.848H124.057C124.057 7.848 124.033 7.848 124.033 7.896C123.985 7.896 123.985 7.92 123.985 7.92V17.928C123.985 17.928 123.985 17.976 124.033 17.976C124.033 18 124.057 18 124.057 18H125.305H126.577C126.577 18 126.601 18 126.601 17.976C126.625 17.976 126.625 17.928 126.625 17.928V8.808C126.817 8.664 127.033 8.568 127.225 8.448C127.681 8.232 128.137 8.088 128.497 8.064C128.833 8.016 129.073 8.016 129.073 8.016H129.097C129.721 8.016 130.225 8.544 130.225 9.168V17.928L130.273 17.976C130.273 18 130.297 18 130.321 18H132.817C132.841 18 132.841 18 132.865 17.976V17.928V11.664C132.865 9.576 131.161 7.848 129.073 7.848ZM141.88 15.408C141.88 15.408 141.88 16.056 141.568 16.656C141.28 17.256 140.68 17.856 139.456 17.856C138.4 17.856 137.512 17.184 137.176 16.224C137.104 16.08 137.08 15.936 137.056 15.816C137.056 15.72 137.008 15.624 137.008 15.576C137.008 15.504 137.008 15.48 137.008 15.408V10.44C137.008 9.096 138.088 8.016 139.456 8.016C140.8 8.016 141.88 9.096 141.88 10.44V12.936V15.408ZM144.496 7.896C144.496 7.848 144.448 7.848 144.448 7.848H141.928C141.928 7.848 141.904 7.848 141.904 7.896C141.88 7.896 141.88 7.92 141.88 7.92V8.496C141.16 8.088 140.32 7.848 139.456 7.848C136.648 7.848 134.368 10.128 134.368 12.936C134.368 15.72 136.648 18 139.456 18C140.728 18 141.352 17.328 141.688 16.704C141.784 16.56 141.856 16.416 141.88 16.248V20.376V22.872V22.896C141.88 22.92 141.88 22.968 141.88 22.992C141.856 23.136 141.856 23.376 141.76 23.688C141.424 24.648 140.488 25.296 139.456 25.296C138.208 25.296 137.608 24.696 137.32 24.096C137.176 23.808 137.104 23.496 137.056 23.256C137.008 23.016 137.008 22.872 137.008 22.872C137.008 22.152 136.408 21.552 135.688 21.552C134.968 21.552 134.368 22.152 134.368 22.872C134.368 23.616 134.968 24.192 135.688 24.192C136.264 24.192 136.744 23.856 136.936 23.352C136.984 23.592 137.032 23.856 137.2 24.168C137.512 24.792 138.16 25.44 139.456 25.44C142.24 25.44 144.52 23.16 144.52 20.376V7.92C144.52 7.92 144.52 7.896 144.496 7.896Z" fill="#3D426A"/>
</svg>
